<svg width="798" height="800" viewBox="0 0 798 800" fill="none" xmlns="http://www.w3.org/2000/svg">
<rect x="-2" width="800" height="800" rx="400" fill="#854DFF"/>
<path d="M398 223.333V390M421 544.333L492.333 440C495.121 435.35 496.733 430.089 497.028 424.675C497.323 419.261 496.293 413.857 494.027 408.931C491.761 404.005 488.327 399.707 484.024 396.408C479.721 393.109 474.679 390.909 469.333 390H326.667C321.322 390.909 316.279 393.109 311.976 396.408C307.673 399.707 304.239 404.005 301.974 408.931C299.708 413.857 298.678 419.261 298.973 424.675C299.268 430.089 300.879 435.35 303.667 440L375 544C377.446 547.872 380.826 551.066 384.829 553.291C388.832 555.516 393.33 556.699 397.909 556.732C402.488 556.765 407.003 555.647 411.038 553.481C415.072 551.314 418.498 548.169 421 544.333Z" stroke="white" stroke-width="50" stroke-linecap="round" stroke-linejoin="round"/>
</svg>
